<?xml version="1.0" encoding="utf-8"?>
<!DOCTYPE svg PUBLIC "-//W3C//DTD SVG 1.1//EN" "http://www.w3.org/Graphics/SVG/1.1/DTD/svg11.dtd">
<svg version="1.1" xmlns="http://www.w3.org/2000/svg" xmlns:xlink="http://www.w3.org/1999/xlink" x="0px" y="0px" viewBox="0 0 1000 1000" enable-background="new 0 0 1000 1000" xml:space="preserve">
<metadata> Svg Vector Icons : http://www.onlinewebfonts.com/icon </metadata>
<g><path d="M915.1,46.4c20.9,0,38.6,7.2,53.1,21.8c14.5,14.5,21.8,32.3,21.8,53.2v57c0,20.9-7.3,38.6-21.8,53.1c-14.5,14.5-32.3,21.8-53.1,21.8H85c-20.9,0-38.6-7.3-53.2-21.8C17.3,217,10,199.3,10,178.4v-57c0-20.9,7.3-38.6,21.8-53.2C46.4,53.6,64.1,46.4,85,46.4H915.1L915.1,46.4z M915.1,396.5c20.9,0,38.6,7.3,53.1,21.8c14.5,14.5,21.8,32.3,21.8,53.1v57c0,20.9-7.3,38.6-21.8,53.1c-14.5,14.5-32.3,21.8-53.1,21.8H85c-20.9,0-38.6-7.3-53.2-21.8C17.3,567.1,10,549.4,10,528.5v-57c0-20.9,7.3-38.6,21.8-53.1c14.5-14.5,32.3-21.8,53.2-21.8L915.1,396.5L915.1,396.5z M915.1,746.7c20.9,0,38.6,7.3,53.1,21.8c14.5,14.5,21.8,32.3,21.8,53.1v57c0,20.9-7.3,38.6-21.8,53.2c-14.5,14.5-32.3,21.8-53.1,21.8H85c-20.9,0-38.6-7.2-53.2-21.8C17.3,917.3,10,899.5,10,878.7v-57c0-20.9,7.3-38.6,21.8-53.1s32.3-21.8,53.2-21.8H915.1L915.1,746.7z"/></g>
</svg>